<?xml version="1.0" encoding="UTF-8" standalone="no"?>
<!DOCTYPE svg PUBLIC "-//W3C//DTD SVG 1.1//EN" "http://www.w3.org/Graphics/SVG/1.1/DTD/svg11.dtd">
<svg width="100%" height="100%" viewBox="0 0 669 105" version="1.1" xmlns="http://www.w3.org/2000/svg" xmlns:xlink="http://www.w3.org/1999/xlink" xml:space="preserve" xmlns:serif="http://www.serif.com/" style="fill-rule:evenodd;clip-rule:evenodd;stroke-linejoin:round;stroke-miterlimit:2;">
    <g transform="matrix(1,0,0,1,-3.08,-802)">
        <g id="Artboard1" transform="matrix(1.74913,0,0,1,3.08,802)">
            <rect x="0" y="0" width="382.43" height="104.63" style="fill:none;"/>
            <g id="Layer_1" transform="matrix(0.571713,0,0,1,-4.44089e-16,0)">
                <path d="M140.76,52.2L134.32,52.2L134.32,76.2L125.32,76.2L125.32,52.2L120.67,52.2L120.67,44.49L125.32,44.49L125.32,41.49C125.32,33.72 130.17,29.73 137.55,29.73C138.691,29.741 139.828,29.875 140.94,30.13L140.94,39.13C139.966,38.745 138.928,38.545 137.88,38.54C137.797,38.534 137.714,38.53 137.63,38.53C135.831,38.53 134.35,40.011 134.35,41.81C134.35,41.894 134.354,41.977 134.36,42.06L134.36,44.45L140.8,44.45L140.76,52.2ZM154.32,76.2L145.22,76.2L145.22,30.4L154.32,30.4L154.32,76.2Z" style="fill-rule:nonzero;"/>
                <path d="M174.52,42.5C174.53,42.5 174.54,42.5 174.55,42.5C184.008,42.5 191.79,50.282 191.79,59.74C191.79,69.198 184.008,76.98 174.55,76.98C165.092,76.98 157.31,69.198 157.31,59.74C157.31,59.73 157.31,59.72 157.31,59.71C157.309,59.64 157.309,59.569 157.309,59.499C157.309,50.173 164.983,42.499 174.309,42.499C174.379,42.499 174.45,42.499 174.52,42.5ZM174.52,68.14C179.17,68.14 182.52,64.29 182.52,59.71C182.52,55.13 179.2,51.33 174.52,51.33C170.018,51.485 166.4,55.231 166.4,59.735C166.4,64.239 170.018,67.985 174.52,68.14Z" style="fill-rule:nonzero;"/>
                <path d="M201.23,43.16L207.07,65.16L212.92,47.69L211.33,43.17L220.33,43.17L228.04,65.17L233.76,43.17L243.12,43.17L233.29,76.26L223.86,76.26L217.28,58.12L211.17,76.26L201.67,76.26L191.9,43.17L201.23,43.16Z" style="fill-rule:nonzero;"/>
                <circle cx="53.08" cy="52.32" r="50" style="fill:rgb(0,239,139);"/>
                <rect x="60.91" y="44.49" width="14.12" height="14.12" style="fill:white;"/>
                <path d="M46.79,63.9C46.79,63.903 46.79,63.907 46.79,63.91C46.79,66.817 44.398,69.21 41.49,69.21C38.583,69.21 36.19,66.817 36.19,63.91C36.19,61.002 38.583,58.61 41.49,58.61C41.493,58.61 41.497,58.61 41.5,58.61L46.79,58.61L46.79,44.49L41.5,44.49C41.497,44.49 41.493,44.49 41.49,44.49C30.837,44.49 22.07,53.257 22.07,63.91C22.07,74.563 30.837,83.33 41.49,83.33C52.143,83.33 60.91,74.563 60.91,63.91C60.91,63.907 60.91,63.903 60.91,63.9L60.91,58.61L46.79,58.61L46.79,63.9Z" style="fill:white;fill-rule:nonzero;"/>
                <path d="M66.2,37.43L82.08,37.43L82.08,23.32L66.2,23.32C55.556,23.331 46.801,32.086 46.79,42.73L46.79,44.49L60.91,44.49L60.91,42.73C60.915,39.828 63.298,37.441 66.2,37.43Z" style="fill:white;fill-rule:nonzero;"/>
                <rect x="46.79" y="44.49" width="14.12" height="14.12" style="fill:rgb(22,255,153);fill-rule:nonzero;"/>
                <g transform="matrix(0.810949,0,0,0.828552,23.5436,-77.6726)">
                    <g transform="matrix(78.7292,0,0,78.7292,279,185)">
                        <path d="M0.402,-0.649L0.402,-0.579C0.359,-0.616 0.309,-0.634 0.253,-0.634C0.212,-0.634 0.179,-0.624 0.154,-0.604C0.129,-0.583 0.117,-0.556 0.117,-0.523C0.117,-0.484 0.14,-0.449 0.185,-0.419L0.317,-0.334C0.358,-0.308 0.387,-0.282 0.404,-0.257C0.421,-0.231 0.429,-0.201 0.429,-0.166C0.429,-0.117 0.411,-0.076 0.374,-0.042C0.337,-0.007 0.286,0.01 0.221,0.01C0.162,0.01 0.107,-0.005 0.056,-0.035L0.056,-0.107C0.103,-0.066 0.158,-0.046 0.22,-0.046C0.266,-0.046 0.302,-0.057 0.328,-0.081C0.354,-0.103 0.367,-0.131 0.367,-0.164C0.367,-0.207 0.339,-0.246 0.284,-0.281L0.154,-0.365C0.088,-0.406 0.055,-0.458 0.055,-0.521C0.055,-0.567 0.072,-0.607 0.106,-0.64C0.139,-0.673 0.189,-0.69 0.256,-0.69C0.311,-0.69 0.36,-0.676 0.402,-0.649Z" style="fill-rule:nonzero;"/>
                    </g>
                    <g transform="matrix(78.7292,0,0,78.7292,316.318,185)">
                        <path d="M0.095,-0L0.095,-0.68L0.328,-0.68C0.427,-0.68 0.507,-0.649 0.568,-0.586C0.629,-0.523 0.659,-0.441 0.659,-0.34C0.659,-0.239 0.629,-0.158 0.568,-0.095C0.507,-0.032 0.427,-0 0.328,-0L0.095,-0ZM0.327,-0.626L0.153,-0.626L0.153,-0.054L0.327,-0.054C0.409,-0.054 0.475,-0.081 0.525,-0.134C0.574,-0.187 0.599,-0.256 0.599,-0.34C0.599,-0.424 0.574,-0.493 0.525,-0.546C0.475,-0.599 0.409,-0.626 0.327,-0.626Z" style="fill-rule:nonzero;"/>
                    </g>
                    <g transform="matrix(78.7292,0,0,78.7292,372.058,185)">
                        <path d="M0.095,-0L0.095,-0.68L0.153,-0.68L0.153,-0.318L0.446,-0.68L0.517,-0.68L0.294,-0.402L0.527,-0L0.457,-0L0.255,-0.355L0.153,-0.23L0.153,-0L0.095,-0Z" style="fill-rule:nonzero;"/>
                    </g>
                    <g transform="matrix(78.7292,0,0,78.7292,433.073,185)">
                        <path d="M0.592,-0.646L0.592,-0.58C0.537,-0.615 0.475,-0.633 0.406,-0.633C0.319,-0.633 0.248,-0.605 0.192,-0.549C0.136,-0.493 0.108,-0.423 0.108,-0.34C0.108,-0.259 0.134,-0.19 0.188,-0.133C0.241,-0.076 0.307,-0.047 0.387,-0.047C0.467,-0.047 0.532,-0.072 0.582,-0.122C0.631,-0.172 0.656,-0.235 0.656,-0.31C0.656,-0.332 0.655,-0.346 0.654,-0.352L0.38,-0.352L0.38,-0.404L0.712,-0.404C0.717,-0.385 0.719,-0.357 0.719,-0.32C0.719,-0.225 0.689,-0.147 0.628,-0.084C0.567,-0.021 0.487,0.01 0.386,0.01C0.289,0.01 0.208,-0.024 0.144,-0.091C0.079,-0.158 0.047,-0.241 0.047,-0.34C0.047,-0.44 0.081,-0.523 0.149,-0.59C0.216,-0.657 0.302,-0.69 0.406,-0.69C0.476,-0.69 0.538,-0.675 0.592,-0.646Z" style="fill-rule:nonzero;"/>
                    </g>
                    <g transform="matrix(78.7292,0,0,78.7292,492.356,185)">
                        <path d="M0.41,-0L0.41,-0.083C0.381,-0.021 0.33,0.01 0.257,0.01C0.201,0.01 0.156,-0.008 0.122,-0.045C0.088,-0.081 0.071,-0.128 0.071,-0.186L0.071,-0.481L0.128,-0.481L0.128,-0.196C0.128,-0.151 0.14,-0.115 0.166,-0.088C0.191,-0.06 0.225,-0.046 0.269,-0.046C0.312,-0.046 0.345,-0.059 0.371,-0.085C0.396,-0.111 0.409,-0.146 0.41,-0.189L0.41,-0.481L0.467,-0.481L0.467,-0L0.41,-0Z" style="fill-rule:nonzero;"/>
                    </g>
                    <g transform="matrix(78.7292,0,0,78.7292,535.185,185)">
                        <path d="M0.132,-0.481L0.132,-0L0.075,-0L0.075,-0.481L0.132,-0.481ZM0.061,-0.639C0.061,-0.65 0.065,-0.66 0.074,-0.669C0.082,-0.677 0.092,-0.681 0.103,-0.681C0.116,-0.681 0.126,-0.677 0.134,-0.669C0.142,-0.66 0.146,-0.65 0.146,-0.639C0.146,-0.627 0.142,-0.617 0.134,-0.609C0.126,-0.601 0.116,-0.597 0.103,-0.597C0.092,-0.597 0.082,-0.601 0.074,-0.609C0.065,-0.617 0.061,-0.627 0.061,-0.639Z" style="fill-rule:nonzero;"/>
                    </g>
                    <g transform="matrix(78.7292,0,0,78.7292,551.482,185)">
                        <path d="M0.486,-0L0.486,-0.113C0.467,-0.075 0.441,-0.045 0.406,-0.023C0.371,-0.001 0.332,0.01 0.287,0.01C0.217,0.01 0.159,-0.014 0.112,-0.062C0.065,-0.11 0.042,-0.17 0.042,-0.241C0.042,-0.312 0.065,-0.371 0.112,-0.419C0.159,-0.467 0.217,-0.491 0.287,-0.491C0.332,-0.491 0.371,-0.48 0.406,-0.458C0.441,-0.435 0.467,-0.405 0.486,-0.367L0.486,-0.69L0.543,-0.69L0.543,-0L0.486,-0ZM0.486,-0.241C0.486,-0.295 0.467,-0.341 0.431,-0.379C0.393,-0.416 0.348,-0.435 0.294,-0.435C0.24,-0.435 0.195,-0.416 0.158,-0.379C0.121,-0.341 0.102,-0.295 0.102,-0.241C0.102,-0.186 0.121,-0.14 0.158,-0.103C0.195,-0.065 0.24,-0.046 0.294,-0.046C0.348,-0.046 0.393,-0.065 0.431,-0.103C0.467,-0.14 0.486,-0.186 0.486,-0.241Z" style="fill-rule:nonzero;"/>
                    </g>
                    <g transform="matrix(78.7292,0,0,78.7292,600.136,185)">
                        <path d="M0.516,-0.216L0.101,-0.216C0.106,-0.166 0.126,-0.125 0.161,-0.092C0.196,-0.059 0.238,-0.043 0.289,-0.043C0.322,-0.043 0.354,-0.05 0.386,-0.063C0.418,-0.076 0.445,-0.092 0.467,-0.111L0.467,-0.047C0.413,-0.009 0.353,0.01 0.286,0.01C0.217,0.01 0.159,-0.014 0.112,-0.062C0.065,-0.109 0.042,-0.169 0.042,-0.241C0.042,-0.312 0.065,-0.371 0.111,-0.419C0.157,-0.467 0.214,-0.491 0.283,-0.491C0.351,-0.491 0.407,-0.468 0.452,-0.422C0.497,-0.376 0.519,-0.319 0.519,-0.252C0.519,-0.236 0.518,-0.224 0.516,-0.216ZM0.283,-0.44C0.233,-0.44 0.191,-0.423 0.157,-0.39C0.122,-0.356 0.103,-0.314 0.1,-0.264L0.463,-0.264C0.462,-0.316 0.445,-0.358 0.411,-0.391C0.376,-0.424 0.334,-0.44 0.283,-0.44Z" style="fill-rule:nonzero;"/>
                    </g>
                    <g transform="matrix(78.7292,0,0,78.7292,643.595,185)">
                        <rect x="0.077" y="-0.69" width="0.056" height="0.69" style="fill-rule:nonzero;"/>
                    </g>
                    <g transform="matrix(78.7292,0,0,78.7292,660.128,185)">
                        <path d="M0.132,-0.481L0.132,-0L0.075,-0L0.075,-0.481L0.132,-0.481ZM0.061,-0.639C0.061,-0.65 0.065,-0.66 0.074,-0.669C0.082,-0.677 0.092,-0.681 0.103,-0.681C0.116,-0.681 0.126,-0.677 0.134,-0.669C0.142,-0.66 0.146,-0.65 0.146,-0.639C0.146,-0.627 0.142,-0.617 0.134,-0.609C0.126,-0.601 0.116,-0.597 0.103,-0.597C0.092,-0.597 0.082,-0.601 0.074,-0.609C0.065,-0.617 0.061,-0.627 0.061,-0.639Z" style="fill-rule:nonzero;"/>
                    </g>
                    <g transform="matrix(78.7292,0,0,78.7292,676.425,185)">
                        <path d="M0.132,-0.481L0.132,-0.397C0.161,-0.46 0.212,-0.491 0.285,-0.491C0.341,-0.491 0.386,-0.473 0.42,-0.437C0.454,-0.4 0.471,-0.353 0.471,-0.295L0.471,-0L0.415,-0L0.415,-0.285C0.415,-0.33 0.402,-0.366 0.377,-0.394C0.352,-0.421 0.317,-0.435 0.273,-0.435C0.23,-0.435 0.197,-0.422 0.172,-0.396C0.147,-0.369 0.133,-0.334 0.132,-0.291L0.132,-0L0.075,-0L0.075,-0.481L0.132,-0.481Z" style="fill-rule:nonzero;"/>
                    </g>
                    <g transform="matrix(78.7292,0,0,78.7292,719.017,185)">
                        <path d="M0.516,-0.216L0.101,-0.216C0.106,-0.166 0.126,-0.125 0.161,-0.092C0.196,-0.059 0.238,-0.043 0.289,-0.043C0.322,-0.043 0.354,-0.05 0.386,-0.063C0.418,-0.076 0.445,-0.092 0.467,-0.111L0.467,-0.047C0.413,-0.009 0.353,0.01 0.286,0.01C0.217,0.01 0.159,-0.014 0.112,-0.062C0.065,-0.109 0.042,-0.169 0.042,-0.241C0.042,-0.312 0.065,-0.371 0.111,-0.419C0.157,-0.467 0.214,-0.491 0.283,-0.491C0.351,-0.491 0.407,-0.468 0.452,-0.422C0.497,-0.376 0.519,-0.319 0.519,-0.252C0.519,-0.236 0.518,-0.224 0.516,-0.216ZM0.283,-0.44C0.233,-0.44 0.191,-0.423 0.157,-0.39C0.122,-0.356 0.103,-0.314 0.1,-0.264L0.463,-0.264C0.462,-0.316 0.445,-0.358 0.411,-0.391C0.376,-0.424 0.334,-0.44 0.283,-0.44Z" style="fill-rule:nonzero;"/>
                    </g>
                    <g transform="matrix(78.7292,0,0,78.7292,762.476,185)">
                        <path d="M0.316,-0.463L0.316,-0.398C0.281,-0.425 0.244,-0.439 0.203,-0.439C0.174,-0.439 0.151,-0.432 0.134,-0.419C0.117,-0.405 0.109,-0.387 0.109,-0.365C0.109,-0.35 0.113,-0.338 0.121,-0.328C0.129,-0.318 0.142,-0.307 0.16,-0.296L0.253,-0.24C0.308,-0.207 0.335,-0.166 0.335,-0.119C0.335,-0.078 0.32,-0.047 0.291,-0.024C0.262,-0.001 0.223,0.01 0.175,0.01C0.132,0.01 0.091,-0.001 0.051,-0.022L0.051,-0.089C0.087,-0.057 0.128,-0.041 0.175,-0.041C0.206,-0.041 0.231,-0.048 0.249,-0.063C0.267,-0.077 0.276,-0.095 0.276,-0.118C0.276,-0.146 0.256,-0.172 0.217,-0.195L0.121,-0.254C0.074,-0.283 0.05,-0.32 0.05,-0.365C0.05,-0.402 0.063,-0.432 0.09,-0.456C0.117,-0.479 0.155,-0.491 0.204,-0.491C0.245,-0.491 0.283,-0.482 0.316,-0.463Z" style="fill-rule:nonzero;"/>
                    </g>
                </g>
            </g>
        </g>
    </g>
</svg>
