<?xml version="1.0" encoding="UTF-8" standalone="no"?>
<!DOCTYPE svg PUBLIC "-//W3C//DTD SVG 1.1//EN" "http://www.w3.org/Graphics/SVG/1.1/DTD/svg11.dtd">
<svg width="100%" height="100%" viewBox="0 0 312 55" version="1.1" xmlns="http://www.w3.org/2000/svg" xmlns:xlink="http://www.w3.org/1999/xlink" xml:space="preserve" xmlns:serif="http://www.serif.com/" style="fill-rule:evenodd;clip-rule:evenodd;stroke-linejoin:round;stroke-miterlimit:2;">
    <g transform="matrix(1,0,0,1,-13,-1306.5)">
        <g>
            <g transform="matrix(0.620278,0,0,0.525662,13,746.67)">
                <path d="M503,1074.9C503,1069.44 499.24,1065 494.608,1065L8.392,1065C3.76,1065 0,1069.44 0,1074.9L0,1159.73C0,1165.19 3.76,1169.63 8.392,1169.63L494.608,1169.63C499.24,1169.63 503,1165.19 503,1159.73L503,1074.9Z" style="fill:rgb(0,239,139);"/>
            </g>
            <g transform="matrix(0.646596,0,0,0.646596,12.4122,569.097)">
                <g transform="matrix(1,0,0,1,1.48682e-15,1129.64)">
                    <rect x="60.91" y="44.49" width="14.12" height="14.12" style="fill:white;"/>
                </g>
                <g transform="matrix(1,0,0,1,1.48682e-15,1129.64)">
                    <path d="M46.79,63.9C46.79,63.903 46.79,63.907 46.79,63.91C46.79,66.817 44.398,69.21 41.49,69.21C38.583,69.21 36.19,66.817 36.19,63.91C36.19,61.002 38.583,58.61 41.49,58.61C41.493,58.61 41.497,58.61 41.5,58.61L46.79,58.61L46.79,44.49L41.5,44.49C41.497,44.49 41.493,44.49 41.49,44.49C30.837,44.49 22.07,53.257 22.07,63.91C22.07,74.563 30.837,83.33 41.49,83.33C52.143,83.33 60.91,74.563 60.91,63.91C60.91,63.907 60.91,63.903 60.91,63.9L60.91,58.61L46.79,58.61L46.79,63.9Z" style="fill:white;fill-rule:nonzero;"/>
                </g>
                <g transform="matrix(1,0,0,1,1.48682e-15,1129.64)">
                    <path d="M66.2,37.43L82.08,37.43L82.08,23.32L66.2,23.32C55.556,23.331 46.801,32.086 46.79,42.73L46.79,44.49L60.91,44.49L60.91,42.73C60.915,39.828 63.298,37.441 66.2,37.43Z" style="fill:white;fill-rule:nonzero;"/>
                </g>
                <g transform="matrix(1,0,0,1,1.48682e-15,1129.64)">
                    <rect x="46.79" y="44.49" width="14.12" height="14.12" style="fill:rgb(22,255,153);fill-rule:nonzero;"/>
                </g>
            </g>
            <g transform="matrix(0.636853,0,0,0.519927,-140.974,751.812)">
                <path d="M354.374,1141.26L354.374,1095.6L373.617,1095.6C378.792,1095.6 382.543,1096.88 384.87,1099.45C387.196,1102.01 388.36,1105.23 388.36,1109.1C388.36,1112.02 387.523,1114.68 385.848,1117.09C384.174,1119.51 381.706,1121.15 378.445,1122.02L387.838,1141.26L380.075,1141.26L371.073,1122.61L361.158,1122.61L361.158,1141.26L354.374,1141.26ZM361.158,1116.08L373.748,1116.08C376.357,1116.08 378.271,1115.42 379.488,1114.09C380.706,1112.77 381.315,1111.1 381.315,1109.1C381.315,1107.19 380.739,1105.55 379.586,1104.18C378.434,1102.81 376.488,1102.12 373.748,1102.12L361.158,1102.12L361.158,1116.08Z" style="fill:white;fill-rule:nonzero;"/>
                <path d="M397.166,1141.26L397.166,1095.6L425.476,1095.6L425.476,1101.99L403.95,1101.99L403.95,1114.52L417.844,1114.52L417.844,1120.91L403.95,1120.91L403.95,1134.87L426.911,1134.87L426.911,1141.26L397.166,1141.26Z" style="fill:white;fill-rule:nonzero;"/>
                <path d="M435.065,1141.26L435.065,1095.6L463.376,1095.6L463.376,1101.99L441.849,1101.99L441.849,1114.52L455.744,1114.52L455.744,1120.91L441.849,1120.91L441.849,1141.26L435.065,1141.26Z" style="fill:white;fill-rule:nonzero;"/>
                <path d="M470.225,1141.26L470.225,1095.6L498.535,1095.6L498.535,1101.99L477.009,1101.99L477.009,1114.52L490.903,1114.52L490.903,1120.91L477.009,1120.91L477.009,1134.87L499.97,1134.87L499.97,1141.26L470.225,1141.26Z" style="fill:white;fill-rule:nonzero;"/>
                <path d="M508.124,1141.26L508.124,1095.6L527.367,1095.6C532.542,1095.6 536.293,1096.88 538.62,1099.45C540.946,1102.01 542.11,1105.23 542.11,1109.1C542.11,1112.02 541.273,1114.68 539.598,1117.09C537.924,1119.51 535.456,1121.15 532.195,1122.02L541.588,1141.26L533.825,1141.26L524.823,1122.61L514.908,1122.61L514.908,1141.26L508.124,1141.26ZM514.908,1116.08L527.498,1116.08C530.107,1116.08 532.021,1115.42 533.238,1114.09C534.456,1112.77 535.065,1111.1 535.065,1109.1C535.065,1107.19 534.489,1105.55 533.336,1104.18C532.184,1102.81 530.238,1102.12 527.498,1102.12L514.908,1102.12L514.908,1116.08Z" style="fill:white;fill-rule:nonzero;"/>
                <path d="M550.916,1141.26L550.916,1095.6L579.226,1095.6L579.226,1101.99L557.7,1101.99L557.7,1114.52L571.594,1114.52L571.594,1120.91L557.7,1120.91L557.7,1134.87L580.661,1134.87L580.661,1141.26L550.916,1141.26Z" style="fill:white;fill-rule:nonzero;"/>
                <path d="M623.388,1141.26L616.995,1141.26L597.23,1110.28C596.621,1109.32 596.012,1108.19 595.404,1106.88C595.534,1108.97 595.599,1110.1 595.599,1110.28L595.599,1141.26L588.815,1141.26L588.815,1095.6L595.665,1095.6L614.908,1126.06C615.386,1126.85 616.017,1128.02 616.799,1129.59C616.669,1128.28 616.604,1127.13 616.604,1126.13L616.604,1095.6L623.388,1095.6L623.388,1141.26Z" style="fill:white;fill-rule:nonzero;"/>
                <path d="M651.176,1142.05C648.437,1142.05 645.969,1141.59 643.773,1140.67C641.576,1139.76 639.772,1138.54 638.358,1137.02C636.945,1135.5 635.76,1133.69 634.803,1131.61C633.847,1129.52 633.173,1127.39 632.781,1125.21C632.39,1123.04 632.194,1120.78 632.194,1118.43C632.194,1115.65 632.542,1112.93 633.238,1110.28C633.934,1107.62 634.988,1105.11 636.401,1102.74C637.815,1100.37 639.793,1098.46 642.338,1097C644.882,1095.55 647.828,1094.82 651.176,1094.82C655.177,1094.82 658.504,1095.7 661.157,1097.46C663.809,1099.22 665.658,1101.36 666.701,1103.88L660.504,1106.76C659.33,1104.88 658.036,1103.52 656.623,1102.64C655.21,1101.78 653.394,1101.34 651.176,1101.34C649.002,1101.34 647.11,1101.86 645.501,1102.91C643.892,1103.95 642.653,1105.34 641.783,1107.08C640.913,1108.82 640.272,1110.64 639.859,1112.53C639.446,1114.42 639.239,1116.39 639.239,1118.43C639.239,1122.95 640.261,1126.93 642.305,1130.37C644.349,1133.8 647.306,1135.52 651.176,1135.52C655.003,1135.52 658.091,1133.57 660.439,1129.65L666.767,1132.06C663.896,1138.72 658.7,1142.05 651.176,1142.05Z" style="fill:white;fill-rule:nonzero;"/>
                <path d="M674.92,1141.26L674.92,1095.6L703.231,1095.6L703.231,1101.99L681.705,1101.99L681.705,1114.52L695.599,1114.52L695.599,1120.91L681.705,1120.91L681.705,1134.87L704.666,1134.87L704.666,1141.26L674.92,1141.26Z" style="fill:white;fill-rule:nonzero;"/>
            </g>
        </g>
    </g>
</svg>
