<?xml version="1.0" encoding="UTF-8" standalone="no"?>
<!DOCTYPE svg PUBLIC "-//W3C//DTD SVG 1.1//EN" "http://www.w3.org/Graphics/SVG/1.1/DTD/svg11.dtd">
<svg width="100%" height="100%" viewBox="0 0 130 23" version="1.1" xmlns="http://www.w3.org/2000/svg" xmlns:xlink="http://www.w3.org/1999/xlink" xml:space="preserve" xmlns:serif="http://www.serif.com/" style="fill-rule:evenodd;clip-rule:evenodd;stroke-linejoin:round;stroke-miterlimit:2;">
    <g transform="matrix(1,0,0,1,276,-1471)">
        <g>
            <g transform="matrix(0.258449,0,0,0.219026,-276,1237.74)">
                <path d="M503,1074.9C503,1069.44 499.24,1065 494.608,1065L8.392,1065C3.76,1065 0,1069.44 0,1074.9L0,1159.73C0,1165.19 3.76,1169.63 8.392,1169.63L494.608,1169.63C499.24,1169.63 503,1165.19 503,1159.73L503,1074.9Z" style="fill:rgb(0,239,139);"/>
            </g>
            <g transform="matrix(0.193725,0,0,0.193725,-272.251,1472.13)">
                <rect x="60.91" y="44.49" width="14.12" height="14.12" style="fill:white;"/>
            </g>
            <g transform="matrix(0.193725,0,0,0.193725,-272.251,1472.13)">
                <path d="M46.79,63.9C46.79,63.903 46.79,63.907 46.79,63.91C46.79,66.817 44.398,69.21 41.49,69.21C38.583,69.21 36.19,66.817 36.19,63.91C36.19,61.002 38.583,58.61 41.49,58.61C41.493,58.61 41.497,58.61 41.5,58.61L46.79,58.61L46.79,44.49L41.5,44.49C41.497,44.49 41.493,44.49 41.49,44.49C30.837,44.49 22.07,53.257 22.07,63.91C22.07,74.563 30.837,83.33 41.49,83.33C52.143,83.33 60.91,74.563 60.91,63.91C60.91,63.907 60.91,63.903 60.91,63.9L60.91,58.61L46.79,58.61L46.79,63.9Z" style="fill:white;fill-rule:nonzero;"/>
            </g>
            <g transform="matrix(0.193725,0,0,0.193725,-272.251,1472.13)">
                <path d="M66.2,37.43L82.08,37.43L82.08,23.32L66.2,23.32C55.556,23.331 46.801,32.086 46.79,42.73L46.79,44.49L60.91,44.49L60.91,42.73C60.915,39.828 63.298,37.441 66.2,37.43Z" style="fill:white;fill-rule:nonzero;"/>
            </g>
            <g transform="matrix(0.193725,0,0,0.193725,-272.251,1472.13)">
                <rect x="46.79" y="44.49" width="14.12" height="14.12" style="fill:rgb(22,255,153);fill-rule:nonzero;"/>
            </g>
            <g transform="matrix(0.636853,0,0,0.519927,-467.415,895.035)">
                <path d="M350.811,1141.26L350.811,1125.54L354.012,1125.54L354.012,1127.44C354.709,1125.93 355.879,1125.17 357.52,1125.17C358.546,1125.17 359.428,1125.49 360.167,1126.12L359.705,1129.08C358.946,1128.56 358.115,1128.31 357.212,1128.31C356.351,1128.31 355.602,1128.63 354.966,1129.28C354.33,1129.92 354.012,1130.97 354.012,1132.43L354.012,1141.26L350.811,1141.26Z" style="fill:white;fill-rule:nonzero;"/>
                <path d="M368.783,1141.63C366.588,1141.63 364.849,1140.9 363.567,1139.43C362.285,1137.96 361.644,1135.95 361.644,1133.38C361.644,1130.82 362.29,1128.81 363.582,1127.35C364.875,1125.9 366.609,1125.17 368.783,1125.17C370.753,1125.17 372.373,1125.79 373.645,1127.04C374.917,1128.3 375.553,1130.12 375.553,1132.52C375.553,1133.4 375.512,1134.09 375.43,1134.58L364.844,1134.58C364.865,1135.84 365.27,1136.85 366.06,1137.63C366.85,1138.41 367.768,1138.8 368.814,1138.8C370.168,1138.8 371.255,1138.27 372.076,1137.2L374.169,1139.35C372.897,1140.87 371.101,1141.63 368.783,1141.63ZM364.844,1132L372.353,1132C372.332,1130.64 371.973,1129.64 371.276,1128.98C370.578,1128.33 369.747,1128 368.783,1128C367.696,1128 366.788,1128.32 366.06,1128.97C365.331,1129.61 364.926,1130.62 364.844,1132Z" style="fill:white;fill-rule:nonzero;"/>
                <path d="M382.939,1128.31L382.939,1141.26L379.739,1141.26L379.739,1128.31L377.4,1128.31L377.4,1125.54L379.739,1125.54L379.739,1123.01C379.739,1121.68 380.077,1120.74 380.754,1120.18C381.431,1119.63 382.293,1119.35 383.339,1119.35C384.447,1119.35 385.493,1119.6 386.478,1120.09L386.478,1122.74C385.596,1122.37 384.847,1122.18 384.232,1122.18C383.37,1122.18 382.939,1122.65 382.939,1123.6L382.939,1125.54L386.478,1125.54L386.478,1128.31L382.939,1128.31Z" style="fill:white;fill-rule:nonzero;"/>
                <path d="M394.695,1141.63C392.499,1141.63 390.761,1140.9 389.478,1139.43C388.196,1137.96 387.555,1135.95 387.555,1133.38C387.555,1130.82 388.201,1128.81 389.494,1127.35C390.786,1125.9 392.52,1125.17 394.695,1125.17C396.664,1125.17 398.285,1125.79 399.557,1127.04C400.829,1128.3 401.465,1130.12 401.465,1132.52C401.465,1133.4 401.424,1134.09 401.342,1134.58L390.755,1134.58C390.776,1135.84 391.181,1136.85 391.971,1137.63C392.761,1138.41 393.679,1138.8 394.725,1138.8C396.079,1138.8 397.167,1138.27 397.987,1137.2L400.08,1139.35C398.808,1140.87 397.013,1141.63 394.695,1141.63ZM390.755,1132L398.264,1132C398.244,1130.64 397.885,1129.64 397.187,1128.98C396.49,1128.33 395.659,1128 394.695,1128C393.607,1128 392.699,1128.32 391.971,1128.97C391.243,1129.61 390.838,1130.62 390.755,1132Z" style="fill:white;fill-rule:nonzero;"/>
                <path d="M404.542,1141.26L404.542,1125.54L407.742,1125.54L407.742,1127.44C408.44,1125.93 409.609,1125.17 411.251,1125.17C412.276,1125.17 413.159,1125.49 413.897,1126.12L413.436,1129.08C412.677,1128.56 411.846,1128.31 410.943,1128.31C410.081,1128.31 409.332,1128.63 408.696,1129.28C408.06,1129.92 407.742,1130.97 407.742,1132.43L407.742,1141.26L404.542,1141.26Z" style="fill:white;fill-rule:nonzero;"/>
                <path d="M422.514,1141.63C420.319,1141.63 418.58,1140.9 417.298,1139.43C416.015,1137.96 415.374,1135.95 415.374,1133.38C415.374,1130.82 416.021,1128.81 417.313,1127.35C418.606,1125.9 420.339,1125.17 422.514,1125.17C424.483,1125.17 426.104,1125.79 427.376,1127.04C428.648,1128.3 429.284,1130.12 429.284,1132.52C429.284,1133.4 429.243,1134.09 429.161,1134.58L418.575,1134.58C418.595,1135.84 419,1136.85 419.79,1137.63C420.58,1138.41 421.498,1138.8 422.545,1138.8C423.899,1138.8 424.986,1138.27 425.807,1137.2L427.899,1139.35C426.627,1140.87 424.832,1141.63 422.514,1141.63ZM418.575,1132L426.084,1132C426.063,1130.64 425.704,1129.64 425.006,1128.98C424.309,1128.33 423.478,1128 422.514,1128C421.426,1128 420.519,1128.32 419.79,1128.97C419.062,1129.61 418.657,1130.62 418.575,1132Z" style="fill:white;fill-rule:nonzero;"/>
                <path d="M442.086,1141.26L442.086,1131.88C442.086,1130.62 441.799,1129.7 441.224,1129.09C440.65,1128.49 439.891,1128.18 438.947,1128.18C436.69,1128.18 435.562,1129.39 435.562,1131.81L435.562,1141.26L432.361,1141.26L432.361,1125.54L435.562,1125.54L435.562,1127.04C436.547,1125.79 437.901,1125.17 439.624,1125.17C443.399,1125.17 445.286,1127.4 445.286,1131.88L445.286,1141.26L442.086,1141.26Z" style="fill:white;fill-rule:nonzero;"/>
                <path d="M455.226,1141.63C453.113,1141.63 451.441,1140.9 450.21,1139.45C448.979,1137.99 448.364,1135.98 448.364,1133.41C448.364,1130.85 448.979,1128.83 450.21,1127.37C451.441,1125.9 453.113,1125.17 455.226,1125.17C458.283,1125.17 460.263,1126.52 461.165,1129.23L458.119,1130.28C457.606,1128.92 456.683,1128.25 455.349,1128.25C454.159,1128.25 453.241,1128.7 452.595,1129.61C451.949,1130.53 451.626,1131.79 451.626,1133.41C451.626,1135.02 451.944,1136.27 452.58,1137.18C453.216,1138.1 454.098,1138.55 455.226,1138.55C456.744,1138.55 457.729,1137.78 458.18,1136.25L461.227,1137.2C460.386,1140.15 458.385,1141.63 455.226,1141.63Z" style="fill:white;fill-rule:nonzero;"/>
                <path d="M470.828,1141.63C468.633,1141.63 466.894,1140.9 465.612,1139.43C464.33,1137.96 463.689,1135.95 463.689,1133.38C463.689,1130.82 464.335,1128.81 465.628,1127.35C466.92,1125.9 468.654,1125.17 470.828,1125.17C472.798,1125.17 474.418,1125.79 475.69,1127.04C476.962,1128.3 477.598,1130.12 477.598,1132.52C477.598,1133.4 477.557,1134.09 477.475,1134.58L466.889,1134.58C466.91,1135.84 467.315,1136.85 468.105,1137.63C468.895,1138.41 469.813,1138.8 470.859,1138.8C472.213,1138.8 473.3,1138.27 474.121,1137.2L476.214,1139.35C474.942,1140.87 473.147,1141.63 470.828,1141.63ZM466.889,1132L474.398,1132C474.377,1130.64 474.018,1129.64 473.321,1128.98C472.623,1128.33 471.792,1128 470.828,1128C469.741,1128 468.833,1128.32 468.105,1128.97C467.376,1129.61 466.971,1130.62 466.889,1132Z" style="fill:white;fill-rule:nonzero;"/>
            </g>
        </g>
    </g>
</svg>
