<?xml version="1.0" encoding="UTF-8" standalone="no"?>
<!DOCTYPE svg PUBLIC "-//W3C//DTD SVG 1.1//EN" "http://www.w3.org/Graphics/SVG/1.1/DTD/svg11.dtd">
<svg width="100%" height="100%" viewBox="0 0 130 23" version="1.1" xmlns="http://www.w3.org/2000/svg" xmlns:xlink="http://www.w3.org/1999/xlink" xml:space="preserve" xmlns:serif="http://www.serif.com/" style="fill-rule:evenodd;clip-rule:evenodd;stroke-linejoin:round;stroke-miterlimit:2;">
    <g transform="matrix(1,0,0,1,276,-1499)">
        <g>
            <g transform="matrix(0.258449,0,0,0.219026,-276,1265.74)">
                <path d="M503,1074.9C503,1069.44 499.24,1065 494.608,1065L8.392,1065C3.76,1065 0,1069.44 0,1074.9L0,1159.73C0,1165.19 3.76,1169.63 8.392,1169.63L494.608,1169.63C499.24,1169.63 503,1165.19 503,1159.73L503,1074.9Z" style="fill:rgb(0,239,139);"/>
            </g>
            <g transform="matrix(0.636853,0,0,0.519927,-467.395,921.573)">
                <path d="M354.937,1141.61C352.744,1141.61 351.648,1140.39 351.648,1137.94L351.648,1129.12L349.369,1129.12L349.369,1126.52L351.648,1126.52L351.648,1121.88L354.649,1120.43L354.649,1126.52L358.139,1126.52L358.139,1129.12L354.649,1129.12L354.649,1137.16C354.649,1138.28 355.129,1138.84 356.091,1138.84C356.803,1138.84 357.534,1138.61 358.284,1138.15L357.909,1140.94C357.024,1141.39 356.033,1141.61 354.937,1141.61Z" style="fill:white;fill-rule:nonzero;"/>
                <path d="M361.024,1141.26L361.024,1126.52L364.025,1126.52L364.025,1128.31C364.679,1126.88 365.775,1126.17 367.314,1126.17C368.275,1126.17 369.102,1126.47 369.795,1127.07L369.362,1129.84C368.65,1129.36 367.872,1129.12 367.025,1129.12C366.217,1129.12 365.515,1129.42 364.919,1130.03C364.323,1130.63 364.025,1131.62 364.025,1132.98L364.025,1141.26L361.024,1141.26Z" style="fill:white;fill-rule:nonzero;"/>
                <path d="M373.69,1146.86L375.969,1141L370.458,1126.52L373.43,1126.52L377.065,1136.15C377.238,1136.6 377.373,1137.03 377.469,1137.45C377.565,1137.03 377.7,1136.6 377.873,1136.15L381.537,1126.52L384.537,1126.52L376.748,1146.86L373.69,1146.86Z" style="fill:white;fill-rule:nonzero;"/>
                <path d="M395.991,1123.69C395.645,1124.04 395.222,1124.21 394.721,1124.21C394.221,1124.21 393.793,1124.03 393.438,1123.68C393.082,1123.32 392.904,1122.89 392.904,1122.39C392.904,1121.89 393.082,1121.47 393.438,1121.11C393.793,1120.75 394.221,1120.58 394.721,1120.58C395.222,1120.58 395.649,1120.75 396.005,1121.11C396.361,1121.47 396.539,1121.89 396.539,1122.39C396.539,1122.89 396.356,1123.33 395.991,1123.69ZM393.221,1141.26L393.221,1126.52L396.222,1126.52L396.222,1141.26L393.221,1141.26Z" style="fill:white;fill-rule:nonzero;"/>
                <path d="M404.271,1141.61C402.078,1141.61 400.982,1140.39 400.982,1137.94L400.982,1129.12L398.703,1129.12L398.703,1126.52L400.982,1126.52L400.982,1121.88L403.982,1120.43L403.982,1126.52L407.473,1126.52L407.473,1129.12L403.982,1129.12L403.982,1137.16C403.982,1138.28 404.463,1138.84 405.425,1138.84C406.136,1138.84 406.867,1138.61 407.617,1138.15L407.242,1140.94C406.358,1141.39 405.367,1141.61 404.271,1141.61Z" style="fill:white;fill-rule:nonzero;"/>
                <path d="M427.639,1139.56C426.428,1140.92 424.783,1141.61 422.706,1141.61C420.629,1141.61 418.989,1140.92 417.787,1139.56C416.585,1138.19 415.984,1136.31 415.984,1133.9C415.984,1131.5 416.585,1129.61 417.787,1128.24C418.989,1126.86 420.629,1126.17 422.706,1126.17C424.783,1126.17 426.428,1126.86 427.639,1128.24C428.851,1129.61 429.457,1131.5 429.457,1133.9C429.457,1136.31 428.851,1138.19 427.639,1139.56ZM422.706,1138.78C423.86,1138.78 424.774,1138.35 425.447,1137.48C426.12,1136.62 426.457,1135.42 426.457,1133.9C426.457,1132.39 426.12,1131.19 425.447,1130.31C424.774,1129.44 423.86,1129 422.706,1129C421.571,1129 420.667,1129.44 419.994,1130.31C419.321,1131.19 418.984,1132.39 418.984,1133.9C418.984,1135.4 419.321,1136.59 419.994,1137.47C420.667,1138.34 421.571,1138.78 422.706,1138.78Z" style="fill:white;fill-rule:nonzero;"/>
                <path d="M441.459,1141.26L441.459,1139.85C440.536,1141.02 439.266,1141.61 437.651,1141.61C434.112,1141.61 432.342,1139.51 432.342,1135.32L432.342,1126.52L435.342,1126.52L435.342,1135.32C435.342,1136.49 435.612,1137.36 436.15,1137.93C436.689,1138.5 437.4,1138.78 438.285,1138.78C440.401,1138.78 441.459,1137.65 441.459,1135.38L441.459,1126.52L444.459,1126.52L444.459,1141.26L441.459,1141.26Z" style="fill:white;fill-rule:nonzero;"/>
                <path d="M452.48,1141.61C450.287,1141.61 449.191,1140.39 449.191,1137.94L449.191,1129.12L446.911,1129.12L446.911,1126.52L449.191,1126.52L449.191,1121.88L452.191,1120.43L452.191,1126.52L455.682,1126.52L455.682,1129.12L452.191,1129.12L452.191,1137.16C452.191,1138.28 452.672,1138.84 453.634,1138.84C454.345,1138.84 455.076,1138.61 455.826,1138.15L455.451,1140.94C454.566,1141.39 453.576,1141.61 452.48,1141.61Z" style="fill:white;fill-rule:nonzero;"/>
            </g>
            <g transform="matrix(0.357604,0,0,0.357604,-279.081,1000.37)">
                <g transform="matrix(2.01043,0,0,1.95549,48.6745,1426.42)">
                    <g transform="matrix(1,0,0,1,-7.4065,-8.7525)">
                        <clipPath id="_clip1">
                            <rect x="0" y="0" width="14.813" height="17.505"/>
                        </clipPath>
                        <g clip-path="url(#_clip1)">
                            <g id="Path_61" transform="matrix(1,0,0,1,-19.028,0)">
                                <path d="M19.028,17.5L19.028,0L33.841,8.753L19.028,17.5Z" style="fill:white;fill-rule:nonzero;"/>
                            </g>
                        </g>
                    </g>
                </g>
            </g>
        </g>
    </g>
</svg>
