<?xml version="1.0" encoding="UTF-8" standalone="no"?>
<!DOCTYPE svg PUBLIC "-//W3C//DTD SVG 1.1//EN" "http://www.w3.org/Graphics/SVG/1.1/DTD/svg11.dtd">
<svg width="100%" height="100%" viewBox="0 0 312 55" version="1.1" xmlns="http://www.w3.org/2000/svg" xmlns:xlink="http://www.w3.org/1999/xlink" xml:space="preserve" xmlns:serif="http://www.serif.com/" style="fill-rule:evenodd;clip-rule:evenodd;stroke-linejoin:round;stroke-miterlimit:2;">
    <g transform="matrix(1,0,0,1,-13,-1382.32)">
        <g>
            <g transform="matrix(0.620278,0,0,0.525662,13,822.485)">
                <path d="M503,1074.9C503,1069.44 499.24,1065 494.608,1065L8.392,1065C3.76,1065 0,1069.44 0,1074.9L0,1159.73C0,1165.19 3.76,1169.63 8.392,1169.63L494.608,1169.63C499.24,1169.63 503,1165.19 503,1159.73L503,1074.9Z" style="fill:rgb(0,239,139);"/>
            </g>
            <g transform="matrix(1,0,0,1,1.92,-16.6009)">
                <g transform="matrix(2.01043,0,0,1.95549,48.6745,1426.42)">
                    <g transform="matrix(1,0,0,1,-7.4065,-8.7525)">
                        <g id="Path_61" transform="matrix(1,0,0,1,-19.028,0)">
                            <path d="M19.028,17.5L19.028,0L33.841,8.753L19.028,17.5Z" style="fill:white;fill-rule:nonzero;"/>
                        </g>
                    </g>
                </g>
            </g>
            <g transform="matrix(0.636853,0,0,0.519927,-137.684,828.312)">
                <path d="M371.139,1102.12L371.139,1141.26L364.355,1141.26L364.355,1102.12L351.439,1102.12L351.439,1095.6L384.054,1095.6L384.054,1102.12L371.139,1102.12Z" style="fill:white;fill-rule:nonzero;"/>
                <path d="M391.556,1141.26L391.556,1095.6L410.799,1095.6C415.974,1095.6 419.725,1096.88 422.052,1099.45C424.378,1102.01 425.542,1105.23 425.542,1109.1C425.542,1112.02 424.704,1114.68 423.03,1117.09C421.356,1119.51 418.888,1121.15 415.626,1122.02L425.02,1141.26L417.257,1141.26L408.255,1122.61L398.34,1122.61L398.34,1141.26L391.556,1141.26ZM398.34,1116.08L410.93,1116.08C413.539,1116.08 415.452,1115.42 416.67,1114.09C417.888,1112.77 418.497,1111.1 418.497,1109.1C418.497,1107.19 417.92,1105.55 416.768,1104.18C415.615,1102.81 413.669,1102.12 410.93,1102.12L398.34,1102.12L398.34,1116.08Z" style="fill:white;fill-rule:nonzero;"/>
                <path d="M446.807,1141.26L446.807,1123.39L430.76,1095.6L438.523,1095.6L450.199,1116.47L461.875,1095.6L469.638,1095.6L453.591,1123.32L453.591,1141.26L446.807,1141.26Z" style="fill:white;fill-rule:nonzero;"/>
                <rect x="488.555" y="1095.6" width="6.784" height="45.662" style="fill:white;fill-rule:nonzero;"/>
                <path d="M522.867,1102.12L522.867,1141.26L516.082,1141.26L516.082,1102.12L503.167,1102.12L503.167,1095.6L535.782,1095.6L535.782,1102.12L522.867,1102.12Z" style="fill:white;fill-rule:nonzero;"/>
                <path d="M580.988,1140.67C578.683,1141.59 576.117,1142.05 573.29,1142.05C570.464,1142.05 567.898,1141.59 565.593,1140.67C563.288,1139.76 561.396,1138.54 559.918,1137.02C558.439,1135.5 557.2,1133.69 556.2,1131.61C555.199,1129.52 554.482,1127.39 554.047,1125.21C553.612,1123.04 553.395,1120.78 553.395,1118.43C553.395,1116.08 553.612,1113.82 554.047,1111.65C554.482,1109.47 555.199,1107.34 556.2,1105.25C557.2,1103.17 558.439,1101.36 559.918,1099.84C561.396,1098.32 563.288,1097.1 565.593,1096.19C567.898,1095.27 570.464,1094.82 573.29,1094.82C576.117,1094.82 578.683,1095.27 580.988,1096.19C583.292,1097.1 585.184,1098.32 586.663,1099.84C588.141,1101.36 589.381,1103.17 590.381,1105.25C591.381,1107.34 592.099,1109.47 592.533,1111.65C592.968,1113.82 593.186,1116.08 593.186,1118.43C593.186,1120.78 592.968,1123.04 592.533,1125.21C592.099,1127.39 591.381,1129.52 590.381,1131.61C589.381,1133.69 588.141,1135.5 586.663,1137.02C585.184,1138.54 583.292,1139.76 580.988,1140.67ZM567.289,1134.02C569.028,1135.02 571.029,1135.52 573.29,1135.52C575.552,1135.52 577.552,1134.99 579.292,1133.92C581.031,1132.86 582.379,1131.45 583.336,1129.72C584.293,1127.98 584.999,1126.16 585.456,1124.27C585.912,1122.38 586.141,1120.43 586.141,1118.43C586.141,1116.34 585.912,1114.33 585.456,1112.4C584.999,1110.46 584.293,1108.65 583.336,1106.95C582.379,1105.25 581.031,1103.89 579.292,1102.87C577.552,1101.85 575.552,1101.34 573.29,1101.34C571.029,1101.34 569.028,1101.87 567.289,1102.94C565.549,1104 564.201,1105.41 563.245,1107.15C562.288,1108.88 561.581,1110.7 561.125,1112.59C560.668,1114.48 560.44,1116.43 560.44,1118.43C560.44,1120.52 560.668,1122.53 561.125,1124.46C561.581,1126.4 562.288,1128.22 563.245,1129.91C564.201,1131.61 565.549,1132.98 567.289,1134.02Z" style="fill:white;fill-rule:nonzero;"/>
                <path d="M618.822,1142.05C613.647,1142.05 609.494,1140.62 606.362,1137.77C603.231,1134.92 601.666,1130.33 601.666,1123.98L601.666,1095.6L608.45,1095.6L608.45,1123.98C608.45,1128.24 609.363,1131.23 611.19,1132.94C613.016,1134.66 615.56,1135.52 618.822,1135.52C622.083,1135.52 624.638,1134.66 626.486,1132.94C628.335,1131.23 629.259,1128.24 629.259,1123.98L629.259,1095.6L636.043,1095.6L636.043,1123.98C636.043,1130.33 634.499,1134.92 631.411,1137.77C628.324,1140.62 624.127,1142.05 618.822,1142.05Z" style="fill:white;fill-rule:nonzero;"/>
                <path d="M662.918,1102.12L662.918,1141.26L656.134,1141.26L656.134,1102.12L643.218,1102.12L643.218,1095.6L675.834,1095.6L675.834,1102.12L662.918,1102.12Z" style="fill:white;fill-rule:nonzero;"/>
            </g>
        </g>
    </g>
</svg>
